<svg xmlns="http://www.w3.org/2000/svg" viewBox="0 0 64 64"><g id="_02-Calendar" data-name="02-Calendar"><rect x="1" y="59" width="62" height="4" style="fill:#d6e0eb"/><path d="M1,4V15H63V4Zm14,7H7V7h8Zm14,0H21V7h8Zm14,0H35V7h8Zm14,0H49V7h8Z" style="fill:#e63b47"/><path d="M10,1h2a1,1,0,0,1,1,1V8a0,0,0,0,1,0,0H9A0,0,0,0,1,9,8V2A1,1,0,0,1,10,1Z" style="fill:#d6e0eb"/><path d="M24,1h2a1,1,0,0,1,1,1V8a0,0,0,0,1,0,0H23a0,0,0,0,1,0,0V2A1,1,0,0,1,24,1Z" style="fill:#d6e0eb"/><path d="M38,1h2a1,1,0,0,1,1,1V8a0,0,0,0,1,0,0H37a0,0,0,0,1,0,0V2A1,1,0,0,1,38,1Z" style="fill:#d6e0eb"/><path d="M52,1h2a1,1,0,0,1,1,1V8a0,0,0,0,1,0,0H51a0,0,0,0,1,0,0V2A1,1,0,0,1,52,1Z" style="fill:#d6e0eb"/><rect x="1" y="15" width="62" height="44" style="fill:#fbfbfb"/><path d="M54,6H53a1,1,0,0,1-1-1V2a1,1,0,0,1,1-1H52a1,1,0,0,0-1,1V8h4V5A1,1,0,0,1,54,6Z" style="fill:#a8b7d4"/><path d="M40,6H39a1,1,0,0,1-1-1V2a1,1,0,0,1,1-1H38a1,1,0,0,0-1,1V8h4V5A1,1,0,0,1,40,6Z" style="fill:#a8b7d4"/><path d="M26,6H25a1,1,0,0,1-1-1V2a1,1,0,0,1,1-1H24a1,1,0,0,0-1,1V8h4V5A1,1,0,0,1,26,6Z" style="fill:#a8b7d4"/><path d="M12,6H11a1,1,0,0,1-1-1V2a1,1,0,0,1,1-1H10A1,1,0,0,0,9,2V8h4V5A1,1,0,0,1,12,6Z" style="fill:#a8b7d4"/><rect x="14" y="8" width="1" height="3" style="fill:#d6e0eb"/><path d="M1,15V59H63V53H34C19.088,53,7,41.912,7,27V15Z" style="fill:#d6e0eb"/><polygon points="1 63 1 59 63 59 63 61 6 61 6 62 63 62 63 63 1 63" style="fill:#8394b2"/><path d="M1,15V59H63V53H34C19.088,53,7,41.912,7,27V15Z" style="fill:#edf4fa"/><rect x="6" y="31" width="4" height="4" style="fill:#e63b47"/><path d="M6,35H8.236A25.544,25.544,0,0,1,7.3,31H6Z" style="fill:#d13641"/><path d="M62,58H2V52H0V63a1,1,0,0,0,1,1H63a1,1,0,0,0,1-1V25H62ZM2,62V60H62v2Z"/><rect x="62" y="21" width="2" height="2"/><path d="M63,3H58V5h4v9H2V5H6V3H1A1,1,0,0,0,0,4V50H2V16H62v3h2V4A1,1,0,0,0,63,3Z"/><path d="M6,11a1,1,0,0,0,1,1h8a1,1,0,0,0,1-1V7a1,1,0,0,0-1-1H14V5h8V6H21a1,1,0,0,0-1,1v4a1,1,0,0,0,1,1h8a1,1,0,0,0,1-1V7a1,1,0,0,0-1-1H28V5h8V6H35a1,1,0,0,0-1,1v4a1,1,0,0,0,1,1h8a1,1,0,0,0,1-1V7a1,1,0,0,0-1-1H42V5h8V6H49a1,1,0,0,0-1,1v4a1,1,0,0,0,1,1h8a1,1,0,0,0,1-1V7a1,1,0,0,0-1-1H56V2a2,2,0,0,0-2-2H52a2,2,0,0,0-2,2V3H42V2a2,2,0,0,0-2-2H38a2,2,0,0,0-2,2V3H28V2a2,2,0,0,0-2-2H24a2,2,0,0,0-2,2V3H14V2a2,2,0,0,0-2-2H10A2,2,0,0,0,8,2V6H7A1,1,0,0,0,6,7ZM55,9a1,1,0,0,0,1-1v2H50V8a1,1,0,0,0,1,1ZM52,2h2V7H52ZM41,9a1,1,0,0,0,1-1v2H36V8a1,1,0,0,0,1,1ZM38,2h2V7H38ZM27,9a1,1,0,0,0,1-1v2H22V8a1,1,0,0,0,1,1ZM24,2h2V7H24ZM10,2h2V7H10ZM8,8A1,1,0,0,0,9,9h4a1,1,0,0,0,1-1v2H8Z"/><rect x="46" y="19" width="2" height="2"/><rect x="49" y="19" width="2" height="2"/><rect x="52" y="19" width="2" height="2"/><rect x="55" y="19" width="2" height="2"/><rect x="7" y="19" width="2" height="2"/><rect x="10" y="19" width="2" height="2"/><rect x="7" y="25" width="2" height="2"/><rect x="7" y="37" width="2" height="2"/><rect x="7" y="42" width="2" height="2"/><rect x="7" y="47" width="2" height="2"/><rect x="7" y="52" width="2" height="2"/><rect x="15" y="25" width="2" height="2"/><rect x="15" y="32" width="2" height="2"/><rect x="15" y="37" width="2" height="2"/><rect x="15" y="42" width="2" height="2"/><rect x="15" y="47" width="2" height="2"/><rect x="15" y="52" width="2" height="2"/><rect x="23" y="25" width="2" height="2"/><rect x="23" y="32" width="2" height="2"/><rect x="23" y="37" width="2" height="2"/><rect x="23" y="42" width="2" height="2"/><rect x="23" y="47" width="2" height="2"/><rect x="23" y="52" width="2" height="2"/><rect x="31" y="25" width="2" height="2"/><rect x="31" y="32" width="2" height="2"/><rect x="31" y="37" width="2" height="2"/><rect x="31" y="42" width="2" height="2"/><rect x="31" y="47" width="2" height="2"/><rect x="39" y="25" width="2" height="2"/><rect x="39" y="32" width="2" height="2"/><rect x="39" y="37" width="2" height="2"/><rect x="39" y="42" width="2" height="2"/><rect x="39" y="47" width="2" height="2"/><rect x="47" y="25" width="2" height="2"/><rect x="47" y="32" width="2" height="2"/><rect x="47" y="37" width="2" height="2"/><rect x="47" y="42" width="2" height="2"/><rect x="47" y="47" width="2" height="2"/><rect x="55" y="25" width="2" height="2"/><rect x="55" y="32" width="2" height="2"/><rect x="55" y="37" width="2" height="2"/><rect x="55" y="42" width="2" height="2"/><rect x="55" y="47" width="2" height="2"/><path d="M5,31v4a1,1,0,0,0,1,1h4a1,1,0,0,0,1-1V31a1,1,0,0,0-1-1H6A1,1,0,0,0,5,31Zm2,1H9v2H7Z"/></g></svg>